<svg data-name="Layer 1" xmlns="http://www.w3.org/2000/svg" viewBox="0 0 48 48"><path d="M8.15 47.91a9.85 9.85 0 0 1-7.85-7c-.39-1.5-.39-32.26 0-33.76A10.06 10.06 0 0 1 7 .38C7.83.1 8.87.06 23.08 0c10.77 0 15.58 0 16.53.15a9.6 9.6 0 0 1 8.12 7.52c.35 1.71.35 31 0 32.7a9.73 9.73 0 0 1-6.92 7.34c-.73.22-2.89.27-16.29.29-8.52 0-15.87 0-16.37-.1z" fill="#fbc325"/><path d="M28.11 39.19c4.48-1.83 8.32-3.5 8.56-3.7l.42-.37v-6.21-6.43c0-.12-.22-.14-.68.13l-.6.36v11.44l-.37.25C34.9 35 20.27 41 19.93 41s-.31-.42-.34-5.86l-.05-5.89-.64 1.5-.64 1.51v2.34c0 2.65.19 2.38-1.73 3.08a4.19 4.19 0 0 1-1.2.32 20.49 20.49 0 0 1-.1-3v-2.8h-.54c-.54 0-.56.08-.59.93a2.11 2.11 0 0 1-.26 1 7.85 7.85 0 0 1-2.68.91c-.07-.07-.12-4.91-.09-10.75V13.65l7.68-3.15c4.22-1.74 7.82-3.16 8-3.18s.31.12.31.39a13.74 13.74 0 0 0 .1 1.4 3.42 3.42 0 0 1-.05 1.22c-.09.12-2.92 1.35-6.3 2.73A50.68 50.68 0 0 0 14.38 16c-.27.32-.29.84-.29 5.2 0 2.66.07 4.93.13 5s.26.17.59.06l.43-.19v-4.64c0-3.58 0-4.76.2-4.86.62-.41 15.59-6.43 15.7-6.31a6.17 6.17 0 0 1 .08 1.63v1.51l-2.33 1-2.33 1-.66-.4a2.87 2.87 0 0 0-1.18-.34 31 31 0 0 0-6.09 2.45c-.22.22-.27.83-.32 3.56v3.29l.64.8.64.79.08-3.77.04-3.78 2.36-1a22 22 0 0 1 2.65-1 2.53 2.53 0 0 1 .85.34 2.21 2.21 0 0 0 .81.34c.13 0 2.22-.79 4.64-1.77a38.82 38.82 0 0 1 4.59-1.69c.17 0 .22 1.06.22 4.5 0 2.47 0 4.48.08 4.48a4.65 4.65 0 0 0 .68-.26l.59-.25v-9.32l-.47-.4c-.61-.52-.86-.51-2.4.1a8.12 8.12 0 0 1-1.52.51c-.2 0-.25-.29-.25-1.47s-.05-1.52-.37-1.86c-.47-.49-.84-.49-2.13 0a7.87 7.87 0 0 1-1.21.42c-.1 0-.17-.47-.17-1.13 0-2.05-.37-2.75-1.45-2.75-.74 0-16.63 6.54-17.07 7l-.37.41v22.68l.43.4c.55.53 1.23.49 2.49-.06 1.45-.66 1.45-.66 1.45.87 0 1.08.07 1.4.36 1.78.44.57.71.55 2.28-.07a4 4 0 0 1 1.43-.41 5.23 5.23 0 0 1 .15 1.71c0 1.47 0 1.63.43 2a1.43 1.43 0 0 0 .86.42c.23 0 4.1-1.5 8.57-3.33z" fill="#fff"/><path d="M17.43 32.65c0-.62-.07-1-.22-1a3.13 3.13 0 0 0-1.21.27 12.48 12.48 0 0 1-2.3.46c-1.16.09-1.32.07-1.64-.25s-.37-.54-.37-3.77 0-3.39.34-3.71a5.2 5.2 0 0 1 1.86-1c.1 0 .23.61.25 1.35 0 1.7 0 1.62 1.33 1.13 1.81-.66 2-.81 2-1.89 0-.51.07-.93.15-.93a20.62 20.62 0 0 1 2.89 3.61 18.23 18.23 0 0 1-.95 2.42c-.52 1.18-1.09 2.54-1.26 3a4 4 0 0 1-.58 1.08c-.26.16-.29.04-.29-.77z" fill="#2691c6"/><path d="M21.31 31.83c.14-.12 1.13-.95 2.2-1.83 2.14-1.77 2.87-2.51 3.37-3.52.26-.51.29-.69.14-.75a9.84 9.84 0 0 0-2.38-.42c-.44 0-.63-.07-.58-.22a84.36 84.36 0 0 1 9.2-3.66c.56 0 .63.37.22 1.17s-.35.89 1.91-.07c1.13-.47 1.79-.68 1.79-.54a13.13 13.13 0 0 1-2.38 1.63c-3 1.79-3.7 2.27-3.7 2.67a6.94 6.94 0 0 1-1.59 2.63 55.9 55.9 0 0 1-7.59 3c-.71.08-.81.07-.59-.12z" fill="#424343"/><path d="M17.43 33.28c0-.19.12-.34.25-.34s.26.05.26.12-.12.22-.26.34-.25.15-.25-.12z" fill="#2691c6"/><path d="M21.31 31.83c.14-.12 1.13-.95 2.2-1.83 2.14-1.77 2.87-2.51 3.37-3.52.26-.51.29-.69.14-.75a9.84 9.84 0 0 0-2.38-.42c-.44 0-.63-.07-.58-.22a84.36 84.36 0 0 1 9.2-3.66c.56 0 .63.37.22 1.17s-.29.87 1.1.27c1.15-.51 1.25-.53 1.13-.09a6.26 6.26 0 0 1-1.89 1.42c-2.23 1.33-2.72 1.7-2.72 2.11a6.92 6.92 0 0 1-1.59 2.61 55.9 55.9 0 0 1-7.59 3c-.71.08-.81.07-.59-.12z" fill="#424343"/><path d="M17.09 31.54c-.22-.13-.2-.17.05-.17s.31.07.31.17 0 .2-.34 0zM16.77 25.58l.41-.28c.32-.24.32-.22.1.05a.75.75 0 0 1-.41.3h-.1z" fill="#2691c6"/></svg>