<svg xmlns="http://www.w3.org/2000/svg" viewBox="0 0 32 32"><g fill="none" fill-rule="evenodd"><path fill="#FC0" d="M24.89 0H7.1A7.11 7.11 0 000 7.11V24.9A7.11 7.11 0 007.11 32H24.9a7.11 7.11 0 007.1-7.11V7.1A7.11 7.11 0 0024.89 0"/><path fill="#00F" d="M10.29 23.06l-3.53-.13V4.85s3.13-.22 7.25-.22c2.76 0 5.27.13 6.94.89 4.72 2.13 5.73 5.36 5.73 8.32 0 2.81-1.38 7.4-6.9 8.84-1.8.48-4.5.38-6.04.38v-4.22c2.58 0 9.35.57 9.35-5 0-4.5-4.72-5-7.27-5h-5.53v14.22z"/><path fill="#003DA5" d="M13.68 26.58c.23.09.98.35 1.4.63l.04.03 3.11-.05.2-.34c.06-.14.07-.26-.01-.34-.1-.1-.24-.1-.54-.1H13.7c-.04 0-.12-.01-.14.06 0 .02 0 .04.02.06a.2.2 0 00.1.05m6.26.79l-4.7.07c-.04 0-.05.01-.05.05 0 .33-.44.65-1.03.93-.63.3-1.42.6-1.83.75l-.33.13c-.05.02-.08.06-.06.1.01.04.06.06.21.02l.24-.06 3.63-.92a65.3 65.3 0 013.94-.86c.09-.02.16-.06.15-.13 0-.06-.07-.09-.17-.08M16.2 29.4s.2.01.36-.08c.24-.14.56-.4 1-1.04l-4.8 1.18 3.44-.06z"/></g></svg>